<svg width="26" height="26" viewBox="0 0 26 26" fill="none" xmlns="http://www.w3.org/2000/svg">
<rect width="26" height="26" rx="5" fill="#C4C4C4"/>
<path fill-rule="evenodd" clip-rule="evenodd" d="M15.5779 16.7958C16.7911 15.9702 17.5879 14.5781 17.5879 13C17.5879 10.466 15.5336 8.41176 12.9996 8.41176C10.4656 8.41176 8.4114 10.466 8.4114 13C8.4114 14.5782 9.20819 15.9703 10.4214 16.7959C9.41667 17.8841 8.4594 19.3241 7.73075 20.8525C6.92859 22.535 6.38208 24.3698 6.38208 26H6.88208H7.38208H18.6174H19.1174H19.6174C19.6174 24.3698 19.0709 22.535 18.2687 20.8525C17.54 19.324 16.5827 17.884 15.5779 16.7958Z" fill="white"/>
</svg>
