<svg width="168" height="168" viewBox="0 0 168 168" fill="none" xmlns="http://www.w3.org/2000/svg">
<path d="M51.8023 91.0551C44.0944 93.3887 35.9553 89.0274 33.6251 81.3117C31.2935 73.5974 35.6512 65.4515 43.3605 63.1193C51.0684 60.7858 59.2074 65.1471 61.5377 72.8628C62.3665 75.6014 62.3707 78.5229 61.553 81.2656" stroke="white" stroke-width="6" stroke-miterlimit="8" stroke-linecap="round"/>
<path d="M33 77.0118L33.0001 44.1996" stroke="white" stroke-width="6" stroke-miterlimit="8" stroke-linecap="round"/>
<path d="M91.9284 90.2647C84.6908 86.8027 81.6154 78.0955 85.0591 70.8169C88.5029 63.5397 97.161 60.4464 104.397 63.9098C111.635 67.3717 114.71 76.079 111.267 83.3576C110.742 84.4664 110.081 85.504 109.298 86.4452" stroke="white" stroke-width="6" stroke-miterlimit="8" stroke-linecap="round"/>
<path d="M83.6512 77.118L83.6512 53.9756" stroke="white" stroke-width="6" stroke-miterlimit="8" stroke-linecap="round"/>
<path d="M91.5391 90.0049C96.3363 91.4643 99.0447 96.5392 97.5865 101.34C96.4368 105.128 92.9707 107.734 89.0163 107.785" stroke="white" stroke-width="6" stroke-miterlimit="8" stroke-linecap="round"/>
<path d="M70.4317 112.348C66.3182 117.776 58.5572 119.836 52.9354 116.991" stroke="white" stroke-width="6" stroke-miterlimit="8" stroke-linecap="round"/>
<path d="M70.1079 112.878C73.8112 107.03 81.6502 104.635 87.6153 107.527C87.7995 107.616 87.9823 107.71 88.161 107.809" stroke="white" stroke-width="6" stroke-miterlimit="8" stroke-linecap="round"/>
<path d="M75.494 124.236C71.4405 129.688 63.6907 131.726 58.087 128.814" stroke="white" stroke-width="6" stroke-miterlimit="8" stroke-linecap="round"/>
<path d="M75.0126 124.802C78.2386 119.591 84.8526 117.036 90.5916 118.781" stroke="white" stroke-width="6" stroke-miterlimit="8" stroke-linecap="round"/>
<path d="M33.001 37.6359C36.3624 29.1257 42.8856 19.1733 55.8791 16.4983C68.8726 13.8232 78.6638 19.9828 83.6521 24.9048" stroke="white" stroke-width="6" stroke-miterlimit="8" stroke-linecap="round"/>
<path d="M112.674 37.6358C110.669 33.3883 106.727 27.9199 101.623 26.2979C96.5196 24.6758 90.9292 27.0687 88.5349 29.3476" stroke="white" stroke-width="6" stroke-miterlimit="8" stroke-linecap="round"/>
<path d="M128.671 153.595C123.85 154.496 119.139 151.317 118.151 146.494C117.162 141.67 120.269 137.03 125.09 136.129C129.911 135.228 134.62 138.407 135.61 143.23C135.96 144.939 135.801 146.705 135.153 148.308" stroke="white" stroke-width="6" stroke-miterlimit="8" stroke-linecap="round"/>
<path fill-rule="evenodd" clip-rule="evenodd" d="M97.7526 144.791C93.9126 141.693 93.3084 136.063 96.4046 132.219C99.5023 128.375 105.126 127.771 108.967 130.871C112.808 133.97 113.411 139.598 110.315 143.442C107.219 147.287 101.594 147.89 97.7526 144.791Z" stroke="white" stroke-width="6" stroke-miterlimit="8"/>
<path d="M118.066 143.814L127.797 74.6124" stroke="white" stroke-width="6" stroke-miterlimit="8" stroke-linecap="round"/>
<path d="M111.089 142.48L138.334 78.0271" stroke="white" stroke-width="6" stroke-miterlimit="8" stroke-linecap="round"/>
</svg>
