<svg width="218" height="58" viewBox="0 0 218 58" fill="none" xmlns="http://www.w3.org/2000/svg">
<path d="M9.38794 31.7717C6.35983 32.6885 3.16233 30.9751 2.24689 27.9439C1.33091 24.9133 3.04286 21.7131 6.07151 20.7969C9.09962 19.8802 12.2971 21.5935 13.2126 24.6247C13.5382 25.7006 13.5398 26.8483 13.2186 27.9258" stroke="#406D96" stroke-width="2.5" stroke-miterlimit="8" stroke-linecap="round"/>
<path d="M2.00146 26.2546L2.00156 13.3641" stroke="#406D96" stroke-width="2.5" stroke-miterlimit="8" stroke-linecap="round"/>
<path d="M25.152 31.4612C22.3086 30.1011 21.1005 26.6804 22.4533 23.821C23.8063 20.9621 27.2077 19.7469 30.0504 21.1075C32.8939 22.4675 34.1019 25.8883 32.7493 28.7477C32.543 29.1833 32.2834 29.5909 31.9758 29.9607" stroke="#406D96" stroke-width="2.5" stroke-miterlimit="8" stroke-linecap="round"/>
<path d="M21.9001 26.2964V17.2047" stroke="#406D96" stroke-width="2.5" stroke-miterlimit="8" stroke-linecap="round"/>
<path d="M24.9989 31.3591C26.8835 31.9325 27.9475 33.9262 27.3747 35.8122C26.923 37.3003 25.5613 38.3241 24.0078 38.3442" stroke="#406D96" stroke-width="2.5" stroke-miterlimit="8" stroke-linecap="round"/>
<path d="M16.7066 40.1367C15.0905 42.2691 12.0416 43.0784 9.83301 41.9608" stroke="#406D96" stroke-width="2.5" stroke-miterlimit="8" stroke-linecap="round"/>
<path d="M16.5796 40.3449C18.0345 38.0475 21.1141 37.1066 23.4575 38.2427C23.5299 38.2777 23.6017 38.3146 23.6719 38.3535" stroke="#406D96" stroke-width="2.5" stroke-miterlimit="8" stroke-linecap="round"/>
<path d="M18.6954 44.8071C17.103 46.949 14.0584 47.7496 11.8569 46.6056" stroke="#406D96" stroke-width="2.5" stroke-miterlimit="8" stroke-linecap="round"/>
<path d="M18.5063 45.0294C19.7737 42.9822 22.3721 41.9784 24.6267 42.664" stroke="#406D96" stroke-width="2.5" stroke-miterlimit="8" stroke-linecap="round"/>
<path d="M2.00171 10.7855C3.32226 7.44225 5.88495 3.53238 10.9895 2.48149C16.0941 1.43055 19.9407 3.8504 21.9004 5.78404" stroke="#406D96" stroke-width="2.5" stroke-miterlimit="8" stroke-linecap="round"/>
<path d="M33.3018 10.7855C32.5142 9.11683 30.9655 6.96853 28.9604 6.33132C26.9555 5.69406 24.7592 6.63413 23.8186 7.52941" stroke="#406D96" stroke-width="2.5" stroke-miterlimit="8" stroke-linecap="round"/>
<path d="M39.5863 56.3409C37.6923 56.6949 35.8416 55.446 35.4534 53.5513C35.0649 51.6561 36.2855 49.8333 38.1795 49.4793C40.0734 49.1253 41.9234 50.3742 42.3123 52.269C42.4498 52.9404 42.3874 53.6342 42.1328 54.2639" stroke="#406D96" stroke-width="2.5" stroke-miterlimit="8" stroke-linecap="round"/>
<path fill-rule="evenodd" clip-rule="evenodd" d="M27.4399 52.8822C25.9313 51.6651 25.6939 49.4533 26.9103 47.9432C28.1272 46.433 30.3365 46.1958 31.8455 47.4136C33.3545 48.6311 33.5914 50.8421 32.3751 52.3522C31.1588 53.8628 28.949 54.0997 27.4399 52.8822Z" stroke="#406D96" stroke-width="2.5" stroke-miterlimit="8"/>
<path d="M35.4202 52.4984L39.2431 25.312" stroke="#406D96" stroke-width="2.5" stroke-miterlimit="8" stroke-linecap="round"/>
<path d="M32.6792 51.9744L43.3826 26.6536" stroke="#406D96" stroke-width="2.5" stroke-miterlimit="8" stroke-linecap="round"/>
<path d="M59.9117 20.1979C61.0975 18.373 61.6399 17.8164 62.7473 17.6883C63.8548 17.5602 65.3708 17.7339 65.0719 20.9068C64.773 24.0798 62.548 32.904 60.9566 36.7274C59.3651 40.5524 57.5416 41.583 56 42.1438" stroke="#406D96" stroke-width="3" stroke-miterlimit="8" stroke-linecap="round"/>
<path d="M65.4619 20.0399C67.7096 18.5382 69.2213 17.1602 71.7551 17.0919C74.2875 17.0236 75.7324 18.8969 76.2491 20.3674C76.7672 21.8378 76.5565 24.1908 74.8598 25.9133C73.1644 27.6371 71.1516 27.667 69.385 27.7567C67.6171 27.8449 65.9928 27.3737 64.2562 26.4456" stroke="#406D96" stroke-width="3" stroke-miterlimit="8" stroke-linecap="round"/>
<path d="M67.8305 27.6243C71.5629 27.909 74.5664 29.1132 75.9017 31.0378C77.2369 32.9609 78.0383 36.0328 75.8404 39.1673C73.6426 42.3004 70.1408 42.5495 67.5216 42.3944C64.9038 42.2392 61.7294 40.2036 60.128 38.2364" stroke="#406D96" stroke-width="3" stroke-miterlimit="8" stroke-linecap="round"/>
<path d="M91.8718 35.9359C90.9622 32.5722 90.1095 31.526 87.8078 30.9053C85.5045 30.2833 83.4675 31.7025 82.353 33.3466C81.2384 34.9907 80.9451 37.4249 81.4035 39.0648C81.8633 40.7046 83.0348 41.7964 85.1088 42.3345C87.1828 42.874 90.5337 41.0463 91.6512 37.7523" stroke="#406D96" stroke-width="3" stroke-miterlimit="8" stroke-linecap="round"/>
<path d="M94.1012 31.1218C92.9154 32.7915 92.0342 34.9311 91.8905 36.6677C91.7467 38.4029 92.4556 40.6592 93.2414 41.536C94.0285 42.4129 95.5175 42.5311 96.6079 41.9303C97.6983 41.3296 98.9766 39.7695 99.7823 37.9303C100.588 36.0926 101.174 32.6207 101.441 30.8983C103.426 32.6449 105.801 32.5311 106.538 34.1538C107.276 35.7752 105.49 39.257 105.862 40.6321C106.234 42.0058 107.196 42.5652 108.384 42.4015" stroke="#406D96" stroke-width="3" stroke-miterlimit="10" stroke-linecap="round" stroke-linejoin="round"/>
<path d="M108.811 42.2862C110.053 41.6371 112.283 39.1089 113.658 35.6299C115.033 32.1524 118.057 21.1203 119.345 17.2328" stroke="#406D96" stroke-width="3" stroke-miterlimit="10" stroke-linecap="round" stroke-linejoin="round"/>
<path d="M112.228 39.2115C113.088 40.5723 115.451 42.3986 117.718 42.2805C119.986 42.1623 121.983 40.7218 122.971 37.6527C123.957 34.5837 123.432 32.9609 121.92 31.7965C120.409 30.6321 117.527 30.2221 114.759 32.9296" stroke="#406D96" stroke-width="3" stroke-miterlimit="10" stroke-linecap="round" stroke-linejoin="round"/>
<path d="M123.9 39.2626C126.431 39.3267 131.774 37.5274 133.947 36.1452C136.122 34.7616 136.979 33.1872 136.376 31.8278C135.772 30.4683 132.955 30.3644 130.9 31.731C128.844 33.0989 127.956 34.8342 127.758 37.4391C127.559 40.0455 128.416 42.0128 130.853 42.4769C133.288 42.9395 134.884 41.5972 137.423 40.558" stroke="#406D96" stroke-width="3" stroke-miterlimit="10" stroke-linecap="round" stroke-linejoin="round"/>
<path d="M139.132 42.1224C140.074 43.2612 141.411 39.7139 142.196 37.8192C142.982 35.9245 143.581 32.4854 143.846 30.7559C145.822 32.5096 148.186 32.3957 148.92 34.0256C149.653 35.6541 147.876 39.1502 148.246 40.531C148.615 41.9117 149.906 42.568 151.089 42.4043" stroke="#406D96" stroke-width="3" stroke-miterlimit="10" stroke-linecap="round" stroke-linejoin="round"/>
<path d="M151.658 42.1438C152.905 41.4919 154.669 38.9068 156.051 35.415C157.433 31.9246 160.471 20.8499 161.765 16.9481" stroke="#406D96" stroke-width="3" stroke-miterlimit="10" stroke-linecap="round" stroke-linejoin="round"/>
<path d="M150.804 24.0655C152.656 20.7773 155.621 17.3353 160.175 16.8513C164.729 16.3673 168.986 19.8335 171.701 20.6847C174.416 21.5346 175.004 21.5061 176.996 21.2413" stroke="#406D96" stroke-width="3" stroke-miterlimit="10" stroke-linecap="round" stroke-linejoin="round"/>
<path d="M153.936 28.9864C156.83 27.8178 160.769 31.6512 163.473 30.763" stroke="#406D96" stroke-width="3" stroke-miterlimit="10" stroke-linecap="round" stroke-linejoin="round"/>
<path fill-rule="evenodd" clip-rule="evenodd" d="M175.406 37.4393C176.317 33.9261 175.174 31.1531 172.497 30.682C169.819 30.2122 167.59 32.1894 166.535 35.4649C165.48 38.7417 166.895 42.003 169.045 42.3802C171.194 42.756 174.495 40.951 175.406 37.4393Z" stroke="#406D96" stroke-width="3" stroke-miterlimit="10" stroke-linecap="round" stroke-linejoin="round"/>
<path d="M174.861 39.9957C174.844 39.9986 176.733 42.7317 178.178 42.2463C179.623 41.7609 180.716 39.5943 181.535 37.6555C182.352 35.7167 182.823 32.3388 183.089 30.6135C185.063 32.363 187.426 32.2491 188.158 33.8733C188.891 35.4975 187.116 38.9836 187.486 40.3601C187.855 41.7367 189.429 44.1993 192.94 40.4185" stroke="#406D96" stroke-width="3" stroke-miterlimit="10" stroke-linecap="round" stroke-linejoin="round"/>
<path d="M201.926 33.0321C201.674 31.3595 199.801 30.4043 198.38 30.8755C196.958 31.3481 194.362 32.8812 193.395 35.8606C192.429 38.8399 192.82 41.5147 196.319 42.4257C199.816 43.3367 203.49 39.7026 204.897 38.736" stroke="#406D96" stroke-width="3" stroke-miterlimit="10" stroke-linecap="round" stroke-linejoin="round"/>
<path d="M205.608 38.1509C208.142 38.215 210.074 37.6001 212.139 35.9958C214.205 34.3901 215.174 33.0406 214.569 31.684C213.966 30.326 211.146 30.2221 209.089 31.5887C207.031 32.9538 206.141 34.6862 205.942 37.2883C205.744 39.8919 206.602 41.8563 209.041 42.3189C211.479 42.7815 213.695 41.7282 216 40.067" stroke="#406D96" stroke-width="3" stroke-miterlimit="10" stroke-linecap="round" stroke-linejoin="round"/>
</svg>
