<svg width="36" height="36" viewBox="0 0 36 36" fill="none" xmlns="http://www.w3.org/2000/svg">
<path d="M18 0C8.1134 0 0 8.1134 0 18C0 26.4367 5.91998 34.1005 13.7812 36V30.0449C13.0023 30.2154 12.2855 30.2204 11.4925 29.9866C10.4288 29.6727 9.56442 28.9641 8.92282 27.8836C8.51385 27.1936 7.78903 26.4455 7.0329 26.5004L6.8475 24.3993C8.48254 24.2592 9.89703 25.3954 10.7367 26.8061C11.1096 27.4334 11.5389 27.8012 12.0899 27.9638C12.6225 28.1206 13.1943 28.0453 13.8606 27.81C14.0279 26.476 14.639 25.9766 15.1007 25.2735V25.2724C10.4123 24.5731 8.54379 22.0858 7.80222 20.1226C6.81949 17.5158 7.34683 14.2592 9.08459 12.2011C9.11838 12.161 9.17935 12.0561 9.15573 11.9828C8.35895 9.57596 9.32986 7.58496 9.36557 7.37375C10.2851 7.64566 10.4345 7.10019 13.3599 8.8775L13.8656 9.18127C14.0771 9.30734 14.0106 9.23538 14.2221 9.21945C15.4435 8.88766 16.7311 8.70447 17.9997 8.68799C19.278 8.70447 20.5573 8.88766 21.8293 9.23291L21.993 9.24939C21.9787 9.24719 22.0375 9.23895 22.1361 9.18018C25.7904 6.96671 25.6591 7.69016 26.6391 7.37155C26.6745 7.58304 27.6325 9.60645 26.8443 11.9828C26.738 12.3102 30.0125 15.3086 28.1975 20.1217C27.4559 22.0858 25.5877 24.5731 20.8993 25.2724V25.2735C21.5002 26.1895 22.2223 26.6767 22.2185 28.5664V36C30.08 34.1005 35.9997 26.4367 35.9997 18C36 8.1134 27.8866 0 18 0V0Z" fill="white"/>
</svg>
