<svg width="11" height="11" viewBox="0 0 11 11" fill="none" xmlns="http://www.w3.org/2000/svg">
<path fill-rule="evenodd" clip-rule="evenodd" d="M0.588034 4.92339C0.218079 4.41227 0 3.78402 0 3.10484C0 1.39008 1.39008 0 3.10484 0C4.069 0 4.93052 0.43948 5.5 1.12905C6.06948 0.43948 6.931 0 7.89516 0C9.60992 0 11 1.39008 11 3.10484C11 3.78402 10.7819 4.41228 10.412 4.92339H10.4168L10.3957 4.94563C10.2435 5.15202 10.0664 5.33889 9.86878 5.50179L5.5 10.1129L1.13123 5.5018C0.933601 5.33889 0.756468 5.15201 0.604276 4.94562L0.583212 4.92339H0.588034Z" fill="#E2474B"/>
</svg>
