<svg width="12" height="12" viewBox="0 0 12 12" fill="none" xmlns="http://www.w3.org/2000/svg">
<path fill-rule="evenodd" clip-rule="evenodd" d="M11.9164 3.44695C11.9164 4.18274 11.6801 4.86335 11.2793 5.41706H11.2852L11.2594 5.4443C11.0958 5.66558 10.9058 5.86609 10.6939 6.04115L5.95867 11.039L1.22704 6.04494C1.01181 5.86773 0.818984 5.6643 0.65345 5.43953L0.632153 5.41706H0.637038C0.236253 4.86335 0 4.18274 0 3.44696C0 1.58931 1.50592 0.0833842 3.36358 0.0833842C4.408 0.0833842 5.34124 0.559406 5.95817 1.30633C6.57511 0.559401 7.50836 0.083374 8.55278 0.083374C10.4104 0.083374 11.9164 1.5893 11.9164 3.44695ZM1.62736 4.90858C1.35244 4.51398 1.19124 4.03424 1.19124 3.51685C1.19124 2.17066 2.28255 1.07935 3.62874 1.07935C4.7403 1.07935 5.67807 1.82338 5.97121 2.84059C6.29164 1.86842 7.20722 1.1667 8.2867 1.1667C9.6329 1.1667 10.7242 2.25801 10.7242 3.6042C10.7242 4.45479 10.2885 5.20361 9.62815 5.6397L5.96278 9.50838L2.0267 5.35398C1.90991 5.25205 1.80293 5.13916 1.70736 5.01692L1.60471 4.90858H1.62736Z" fill="#E2474B"/>
</svg>
