<svg width="176" height="188" viewBox="0 0 176 188" fill="none" xmlns="http://www.w3.org/2000/svg">
<path d="M56.2105 79.3875C48.4774 81.7267 40.3118 77.3549 37.9739 69.6204C35.6347 61.8873 40.0066 53.7217 47.7411 51.3839C55.4741 49.0446 63.6397 53.4165 65.9776 61.151C66.8091 63.8962 66.8133 66.8248 65.993 69.5742" stroke="white" stroke-width="6" stroke-miterlimit="8" stroke-linecap="round"/>
<path d="M37.3468 65.3101L37.3468 32.4182" stroke="white" stroke-width="6" stroke-miterlimit="8" stroke-linecap="round"/>
<path d="M96.4675 78.5952C89.2062 75.1248 86.1208 66.3964 89.5758 59.1001C93.0307 51.8052 101.717 48.7045 108.977 52.1762C116.238 55.6466 119.324 64.375 115.869 71.6712C115.342 72.7828 114.679 73.8229 113.893 74.7664" stroke="white" stroke-width="6" stroke-miterlimit="8" stroke-linecap="round"/>
<path d="M88.1632 65.4165L88.1633 42.2179" stroke="white" stroke-width="6" stroke-miterlimit="8" stroke-linecap="round"/>
<path d="M96.0769 78.3348C100.89 79.7977 103.607 84.8849 102.144 89.6978C100.991 93.4943 97.5132 96.1065 93.5458 96.1583" stroke="white" stroke-width="6" stroke-miterlimit="8" stroke-linecap="round"/>
<path d="M74.9006 100.732C70.7736 106.173 62.9874 108.238 57.3472 105.386" stroke="white" stroke-width="6" stroke-miterlimit="8" stroke-linecap="round"/>
<path d="M74.5758 101.264C78.2911 95.401 86.1557 93.0002 92.1403 95.8994C92.3251 95.989 92.5085 96.0828 92.6877 96.1822" stroke="white" stroke-width="6" stroke-miterlimit="8" stroke-linecap="round"/>
<path d="M79.9794 112.649C75.9127 118.114 68.1376 120.157 62.5156 117.238" stroke="white" stroke-width="6" stroke-miterlimit="8" stroke-linecap="round"/>
<path d="M79.4965 113.216C82.733 107.993 89.3685 105.431 95.1263 107.181" stroke="white" stroke-width="6" stroke-miterlimit="8" stroke-linecap="round"/>
<path d="M37.3473 25.8385C40.7197 17.3076 47.2642 7.33108 60.3001 4.64956C73.336 1.96791 83.1591 8.14246 88.1637 13.0764" stroke="white" stroke-width="6" stroke-miterlimit="8" stroke-linecap="round"/>
<path d="M117.281 25.8384C115.269 21.5806 111.314 16.0989 106.194 14.4729C101.074 12.8469 95.465 15.2456 93.0629 17.5301" stroke="white" stroke-width="6" stroke-miterlimit="8" stroke-linecap="round"/>
<path d="M133.33 142.079C128.493 142.982 123.767 139.796 122.776 134.961C121.783 130.126 124.901 125.474 129.738 124.571C134.574 123.668 139.299 126.854 140.291 131.689C140.643 133.403 140.483 135.172 139.834 136.779" stroke="white" stroke-width="6" stroke-miterlimit="8" stroke-linecap="round"/>
<path fill-rule="evenodd" clip-rule="evenodd" d="M102.311 133.254C98.4581 130.148 97.8519 124.505 100.958 120.651C104.066 116.799 109.708 116.192 113.562 119.3C117.416 122.407 118.02 128.048 114.914 131.902C111.808 135.756 106.165 136.361 102.311 133.254Z" stroke="white" stroke-width="6" stroke-miterlimit="8"/>
<path d="M122.69 132.274L132.453 62.9049" stroke="white" stroke-width="6" stroke-miterlimit="8" stroke-linecap="round"/>
<path d="M115.691 130.938L143.025 66.3279" stroke="white" stroke-width="6" stroke-miterlimit="8" stroke-linecap="round"/>
<path d="M7.15622 161.797C8.4161 159.858 8.99235 159.267 10.169 159.131C11.3457 158.994 12.9565 159.179 12.6389 162.55C12.3213 165.922 9.95729 175.297 8.26636 179.36C6.57544 183.424 4.63799 184.519 3 185.115" stroke="white" stroke-width="4.5" stroke-miterlimit="8" stroke-linecap="round"/>
<path d="M13.0533 161.629C15.4415 160.033 17.0477 158.569 19.7399 158.497C22.4305 158.424 23.9657 160.415 24.5147 161.977C25.0652 163.539 24.8414 166.039 23.0385 167.87C21.2372 169.701 19.0986 169.733 17.2216 169.828C15.3432 169.922 13.6174 169.421 11.7722 168.435" stroke="white" stroke-width="4.5" stroke-miterlimit="8" stroke-linecap="round"/>
<path d="M15.57 169.687C19.5357 169.99 22.7269 171.27 24.1456 173.314C25.5643 175.358 26.4158 178.622 24.0806 181.952C21.7454 185.281 18.0247 185.546 15.2418 185.381C12.4604 185.216 9.08761 183.053 7.3861 180.963" stroke="white" stroke-width="4.5" stroke-miterlimit="8" stroke-linecap="round"/>
<path d="M41.1139 178.519C40.1474 174.945 39.2414 173.833 36.7958 173.174C34.3486 172.513 32.1843 174.021 31.0001 175.768C29.8158 177.514 29.5042 180.101 29.9912 181.843C30.4798 183.585 31.7245 184.745 33.9282 185.317C36.1318 185.89 39.6921 183.948 40.8794 180.449" stroke="white" stroke-width="4.5" stroke-miterlimit="8" stroke-linecap="round"/>
<path d="M43.4824 173.404C42.2225 175.178 41.2863 177.451 41.1335 179.296C40.9808 181.14 41.734 183.537 42.5689 184.469C43.4052 185.4 44.9873 185.526 46.1458 184.888C47.3044 184.249 48.6625 182.592 49.5186 180.638C50.3746 178.685 50.9978 174.996 51.2806 173.166C53.3905 175.022 55.9133 174.901 56.6967 176.625C57.4802 178.348 55.5835 182.047 55.9783 183.508C56.373 184.968 57.3955 185.562 58.6584 185.388" stroke="white" stroke-width="4.5" stroke-miterlimit="10" stroke-linecap="round" stroke-linejoin="round"/>
<path d="M59.1121 185.266C60.431 184.576 62.801 181.89 64.262 178.194C65.723 174.499 68.9355 162.777 70.3043 158.647" stroke="white" stroke-width="4.5" stroke-miterlimit="10" stroke-linecap="round" stroke-linejoin="round"/>
<path d="M62.742 181.999C63.6555 183.445 66.1662 185.385 68.5755 185.26C70.9849 185.134 73.1068 183.604 74.1565 180.343C75.2046 177.082 74.6465 175.358 73.0403 174.12C71.4341 172.883 68.3729 172.448 65.4311 175.324" stroke="white" stroke-width="4.5" stroke-miterlimit="10" stroke-linecap="round" stroke-linejoin="round"/>
<path d="M75.1441 182.053C77.8333 182.121 83.5095 180.21 85.819 178.741C88.1301 177.271 89.0406 175.598 88.3993 174.154C87.758 172.709 84.7648 172.599 82.5809 174.051C80.3969 175.504 79.4531 177.348 79.2429 180.116C79.0312 182.885 79.9416 184.975 82.531 185.468C85.1188 185.96 86.8142 184.534 89.5125 183.43" stroke="white" stroke-width="4.5" stroke-miterlimit="10" stroke-linecap="round" stroke-linejoin="round"/>
<path d="M91.3274 185.092C92.3286 186.302 93.7488 182.533 94.5837 180.52C95.4186 178.507 96.0553 174.853 96.3367 173.015C98.4359 174.878 100.948 174.757 101.727 176.489C102.506 178.219 100.618 181.934 101.012 183.401C101.403 184.868 102.775 185.565 104.032 185.391" stroke="white" stroke-width="4.5" stroke-miterlimit="10" stroke-linecap="round" stroke-linejoin="round"/>
<path d="M104.637 185.115C105.962 184.422 107.836 181.675 109.304 177.965C110.773 174.257 114.001 162.49 115.375 158.344" stroke="white" stroke-width="4.5" stroke-miterlimit="10" stroke-linecap="round" stroke-linejoin="round"/>
<path d="M103.73 165.906C105.697 162.413 108.848 158.755 113.686 158.241C118.524 157.727 123.048 161.41 125.932 162.314C128.817 163.217 129.441 163.187 131.559 162.906" stroke="white" stroke-width="4.5" stroke-miterlimit="10" stroke-linecap="round" stroke-linejoin="round"/>
<path d="M107.057 171.135C110.132 169.893 114.317 173.966 117.19 173.022" stroke="white" stroke-width="4.5" stroke-miterlimit="10" stroke-linecap="round" stroke-linejoin="round"/>
<path fill-rule="evenodd" clip-rule="evenodd" d="M129.869 180.116C130.837 176.383 129.623 173.437 126.778 172.936C123.933 172.437 121.564 174.538 120.444 178.018C119.323 181.5 120.826 184.965 123.11 185.366C125.394 185.765 128.901 183.847 129.869 180.116Z" stroke="white" stroke-width="4.5" stroke-miterlimit="10" stroke-linecap="round" stroke-linejoin="round"/>
<path d="M129.29 182.832C129.272 182.835 131.279 185.739 132.814 185.223C134.349 184.708 135.511 182.406 136.38 180.346C137.249 178.286 137.749 174.697 138.032 172.864C140.13 174.722 142.64 174.601 143.418 176.327C144.197 178.053 142.311 181.757 142.704 183.219C143.096 184.682 144.769 187.299 148.498 183.281" stroke="white" stroke-width="4.5" stroke-miterlimit="10" stroke-linecap="round" stroke-linejoin="round"/>
<path d="M158.046 175.433C157.779 173.656 155.788 172.641 154.279 173.142C152.768 173.644 150.009 175.273 148.982 178.439C147.955 181.604 148.371 184.446 152.089 185.414C155.805 186.382 159.709 182.521 161.203 181.494" stroke="white" stroke-width="4.5" stroke-miterlimit="10" stroke-linecap="round" stroke-linejoin="round"/>
<path d="M161.959 180.872C164.651 180.94 166.704 180.287 168.898 178.582C171.093 176.876 172.123 175.442 171.48 174.001C170.839 172.558 167.843 172.448 165.657 173.9C163.47 175.35 162.525 177.191 162.313 179.956C162.103 182.722 163.015 184.809 165.606 185.301C168.196 185.792 170.551 184.673 173 182.908" stroke="white" stroke-width="4.5" stroke-miterlimit="10" stroke-linecap="round" stroke-linejoin="round"/>
</svg>
