<svg width="176" height="188" viewBox="0 0 176 188" fill="none" xmlns="http://www.w3.org/2000/svg">
<path d="M7.15622 161.797C8.4161 159.858 8.99235 159.267 10.169 159.131C11.3457 158.994 12.9565 159.179 12.6389 162.55C12.3213 165.922 9.95729 175.297 8.26636 179.36C6.57544 183.424 4.63799 184.519 3 185.115" stroke="white" stroke-width="4.5" stroke-miterlimit="8" stroke-linecap="round"/>
<path d="M13.0533 161.629C15.4414 160.034 17.0477 158.569 19.7398 158.497C22.4305 158.424 23.9656 160.415 24.5147 161.977C25.0652 163.539 24.8413 166.039 23.0385 167.87C21.2372 169.701 19.0986 169.733 17.2216 169.828C15.3431 169.922 13.6174 169.421 11.7722 168.435" stroke="white" stroke-width="4.5" stroke-miterlimit="8" stroke-linecap="round"/>
<path d="M15.57 169.688C19.5357 169.99 22.727 171.27 24.1456 173.314C25.5643 175.358 26.4158 178.622 24.0806 181.952C21.7454 185.281 18.0247 185.546 15.2418 185.381C12.4604 185.216 9.08762 183.053 7.38611 180.963" stroke="white" stroke-width="4.5" stroke-miterlimit="8" stroke-linecap="round"/>
<path d="M41.1138 178.519C40.1473 174.945 39.2414 173.833 36.7957 173.174C34.3486 172.513 32.1843 174.021 31 175.768C29.8158 177.514 29.5042 180.101 29.9912 181.843C30.4797 183.585 31.7245 184.746 33.9281 185.317C36.1318 185.89 39.6921 183.948 40.8794 180.449" stroke="white" stroke-width="4.5" stroke-miterlimit="8" stroke-linecap="round"/>
<path d="M43.4823 173.404C42.2225 175.178 41.2862 177.451 41.1335 179.296C40.9807 181.14 41.7339 183.537 42.5688 184.469C43.4052 185.4 44.9872 185.526 46.1458 184.888C47.3043 184.249 48.6625 182.592 49.5185 180.638C50.3746 178.685 50.9977 174.996 51.2805 173.166C53.3904 175.022 55.9132 174.901 56.6967 176.625C57.4801 178.348 55.5835 182.047 55.9782 183.508C56.373 184.968 57.3954 185.562 58.6583 185.388" stroke="white" stroke-width="4.5" stroke-miterlimit="10" stroke-linecap="round" stroke-linejoin="round"/>
<path d="M59.1121 185.266C60.4309 184.576 62.8009 181.89 64.262 178.194C65.723 174.499 68.9355 162.777 70.3042 158.647" stroke="white" stroke-width="4.5" stroke-miterlimit="10" stroke-linecap="round" stroke-linejoin="round"/>
<path d="M62.7419 181.999C63.6555 183.445 66.1662 185.385 68.5755 185.26C70.9848 185.134 73.1068 183.604 74.1564 180.343C75.2046 177.082 74.6465 175.358 73.0403 174.121C71.434 172.883 68.3728 172.448 65.4311 175.324" stroke="white" stroke-width="4.5" stroke-miterlimit="10" stroke-linecap="round" stroke-linejoin="round"/>
<path d="M75.1442 182.053C77.8333 182.121 83.5096 180.21 85.8191 178.741C88.1301 177.271 89.0406 175.598 88.3993 174.154C87.758 172.709 84.7649 172.599 82.5809 174.051C80.3969 175.504 79.4532 177.348 79.2429 180.116C79.0312 182.885 79.9417 184.975 82.531 185.468C85.1188 185.96 86.8143 184.534 89.5125 183.43" stroke="white" stroke-width="4.5" stroke-miterlimit="10" stroke-linecap="round" stroke-linejoin="round"/>
<path d="M91.3274 185.092C92.3286 186.302 93.7488 182.533 94.5837 180.52C95.4186 178.507 96.0553 174.853 96.3367 173.015C98.436 174.878 100.948 174.757 101.727 176.489C102.506 178.219 100.618 181.934 101.012 183.401C101.403 184.868 102.775 185.565 104.032 185.391" stroke="white" stroke-width="4.5" stroke-miterlimit="10" stroke-linecap="round" stroke-linejoin="round"/>
<path d="M104.637 185.115C105.962 184.422 107.836 181.675 109.304 177.965C110.773 174.257 114.001 162.49 115.375 158.344" stroke="white" stroke-width="4.5" stroke-miterlimit="10" stroke-linecap="round" stroke-linejoin="round"/>
<path d="M103.729 165.906C105.697 162.413 108.848 158.755 113.686 158.241C118.524 157.727 123.048 161.41 125.932 162.314C128.817 163.217 129.441 163.187 131.559 162.906" stroke="white" stroke-width="4.5" stroke-miterlimit="10" stroke-linecap="round" stroke-linejoin="round"/>
<path d="M107.057 171.135C110.132 169.893 114.317 173.966 117.19 173.022" stroke="white" stroke-width="4.5" stroke-miterlimit="10" stroke-linecap="round" stroke-linejoin="round"/>
<path fill-rule="evenodd" clip-rule="evenodd" d="M129.869 180.116C130.837 176.383 129.623 173.437 126.778 172.936C123.933 172.437 121.564 174.538 120.444 178.018C119.323 181.5 120.826 184.965 123.11 185.366C125.394 185.765 128.901 183.847 129.869 180.116Z" stroke="white" stroke-width="4.5" stroke-miterlimit="10" stroke-linecap="round" stroke-linejoin="round"/>
<path d="M129.29 182.832C129.272 182.835 131.279 185.739 132.814 185.223C134.349 184.708 135.511 182.406 136.38 180.346C137.249 178.286 137.749 174.697 138.032 172.864C140.13 174.722 142.64 174.601 143.418 176.327C144.197 178.053 142.311 181.757 142.704 183.219C143.096 184.682 144.769 187.299 148.498 183.281" stroke="white" stroke-width="4.5" stroke-miterlimit="10" stroke-linecap="round" stroke-linejoin="round"/>
<path d="M158.046 175.433C157.779 173.656 155.788 172.641 154.279 173.142C152.768 173.644 150.009 175.273 148.982 178.439C147.955 181.604 148.371 184.446 152.089 185.414C155.805 186.382 159.709 182.521 161.203 181.494" stroke="white" stroke-width="4.5" stroke-miterlimit="10" stroke-linecap="round" stroke-linejoin="round"/>
<path d="M161.959 180.872C164.651 180.94 166.704 180.287 168.898 178.582C171.093 176.876 172.123 175.442 171.48 174.001C170.839 172.558 167.843 172.448 165.657 173.9C163.47 175.35 162.525 177.191 162.313 179.956C162.103 182.722 163.015 184.809 165.606 185.301C168.196 185.792 170.551 184.673 173 182.908" stroke="white" stroke-width="4.5" stroke-miterlimit="10" stroke-linecap="round" stroke-linejoin="round"/>
<path d="M55.8353 79.2608C48.1153 81.5961 39.9634 77.2316 37.6295 69.5101C35.2942 61.79 39.6587 53.6381 47.3802 51.3042C55.1002 48.9689 63.2521 53.3335 65.586 61.0549C66.4162 63.7955 66.4204 66.7192 65.6014 69.464" stroke="white" stroke-width="6" stroke-miterlimit="8" stroke-linecap="round"/>
<path d="M37.0034 65.2071L37.0035 32.3704" stroke="white" stroke-width="6" stroke-miterlimit="8" stroke-linecap="round"/>
<path d="M96.0248 78.4698C88.7757 75.0053 85.6955 66.2916 89.1447 59.0075C92.5938 51.7249 101.266 48.6293 108.513 52.0953C115.762 55.5598 118.843 64.2735 115.393 71.5575C114.868 72.6672 114.206 73.7056 113.421 74.6475" stroke="white" stroke-width="6" stroke-miterlimit="8" stroke-linecap="round"/>
<path d="M87.7344 65.3133L87.7344 42.1536" stroke="white" stroke-width="6" stroke-miterlimit="8" stroke-linecap="round"/>
<path d="M95.6348 78.2099C100.44 79.6703 103.152 84.749 101.692 89.5538C100.54 93.3439 97.0687 95.9517 93.108 96.0034" stroke="white" stroke-width="6" stroke-miterlimit="8" stroke-linecap="round"/>
<path d="M61.6659 103.965C67.8878 94.1475 81.0583 90.1254 91.0815 94.9805C91.3918 95.1314 91.6964 95.2893 91.9969 95.4556" stroke="white" stroke-width="6" stroke-miterlimit="8" stroke-linecap="round"/>
<path d="M66.6929 115.868C72.114 107.121 83.2273 102.83 92.869 105.761" stroke="white" stroke-width="6" stroke-miterlimit="8" stroke-linecap="round"/>
<path d="M37.0034 25.8018C40.3701 17.2852 46.9036 7.32548 59.9176 4.64847C72.9316 1.97133 82.7382 8.1355 87.7344 13.0612" stroke="white" stroke-width="6" stroke-miterlimit="8" stroke-linecap="round"/>
<path d="M116.803 25.8017C114.795 21.551 110.847 16.0786 105.735 14.4553C100.623 12.832 95.0238 15.2267 92.6257 17.5073" stroke="white" stroke-width="6" stroke-miterlimit="8" stroke-linecap="round"/>
<path d="M132.825 141.847C127.996 142.749 123.278 139.568 122.289 134.741C121.298 129.914 124.41 125.27 129.239 124.368C134.067 123.467 138.784 126.648 139.775 131.475C140.126 133.185 139.966 134.952 139.318 136.556" stroke="white" stroke-width="6" stroke-miterlimit="8" stroke-linecap="round"/>
<path fill-rule="evenodd" clip-rule="evenodd" d="M101.858 133.037C98.012 129.936 97.4068 124.302 100.508 120.455C103.611 116.609 109.243 116.004 113.09 119.106C116.938 122.208 117.541 127.84 114.44 131.687C111.339 135.535 105.705 136.138 101.858 133.037Z" stroke="white" stroke-width="6" stroke-miterlimit="8"/>
<path d="M122.203 132.059L131.95 62.8059" stroke="white" stroke-width="6" stroke-miterlimit="8" stroke-linecap="round"/>
<path d="M115.216 130.724L142.504 66.2231" stroke="white" stroke-width="6" stroke-miterlimit="8" stroke-linecap="round"/>
</svg>
