<svg width="176" height="33" viewBox="0 0 176 33" fill="none" xmlns="http://www.w3.org/2000/svg">
<path d="M7.15622 6.79702C8.4161 4.85805 8.99235 4.26668 10.169 4.13056C11.3457 3.99444 12.9565 4.17897 12.6389 7.55024C12.3213 10.9215 9.95729 20.2972 8.26636 24.3597C6.57544 28.4236 4.63799 29.5186 3 30.1146" stroke="white" stroke-width="4.5" stroke-miterlimit="8" stroke-linecap="round"/>
<path d="M13.0533 6.62914C15.4415 5.0335 17.0477 3.56945 19.7399 3.49685C22.4305 3.42425 23.9657 5.41464 24.5147 6.97701C25.0652 8.53938 24.8414 11.0395 23.0385 12.8695C21.2372 14.7011 19.0986 14.7329 17.2216 14.8282C15.3432 14.9219 13.6174 14.4213 11.7722 13.4352" stroke="white" stroke-width="4.5" stroke-miterlimit="8" stroke-linecap="round"/>
<path d="M15.57 14.6875C19.5357 14.99 22.7269 16.2695 24.1456 18.3144C25.5643 20.3577 26.4158 23.6216 24.0806 26.952C21.7454 30.2809 18.0247 30.5456 15.2418 30.3807C12.4604 30.2159 9.08761 28.0531 7.3861 25.9629" stroke="white" stroke-width="4.5" stroke-miterlimit="8" stroke-linecap="round"/>
<path d="M41.1139 23.5187C40.1474 19.9448 39.2414 18.8331 36.7958 18.1737C34.3486 17.5128 32.1843 19.0207 31.0001 20.7676C29.8158 22.5144 29.5042 25.1007 29.9912 26.8431C30.4798 28.5854 31.7245 29.7455 33.9282 30.3172C36.1318 30.8904 39.6921 28.9484 40.8794 25.4486" stroke="white" stroke-width="4.5" stroke-miterlimit="8" stroke-linecap="round"/>
<path d="M43.4824 18.4036C42.2225 20.1777 41.2863 22.4509 41.1335 24.2961C40.9808 26.1398 41.734 28.537 42.5689 29.4687C43.4052 30.4004 44.9873 30.5259 46.1458 29.8877C47.3044 29.2494 48.6625 27.5918 49.5186 25.6377C50.3746 23.6851 50.9978 19.9962 51.2806 18.1661C53.3905 20.0219 55.9133 19.9009 56.6967 21.6251C57.4802 23.3478 55.5835 27.0473 55.9783 28.5083C56.373 29.9678 57.3955 30.5622 58.6584 30.3883" stroke="white" stroke-width="4.5" stroke-miterlimit="10" stroke-linecap="round" stroke-linejoin="round"/>
<path d="M59.1121 30.2658C60.431 29.5761 62.801 26.89 64.262 23.1935C65.723 19.4986 68.9355 7.77709 70.3043 3.64658" stroke="white" stroke-width="4.5" stroke-miterlimit="10" stroke-linecap="round" stroke-linejoin="round"/>
<path d="M62.742 26.9989C63.6555 28.4448 66.1662 30.3853 68.5755 30.2597C70.9849 30.1342 73.1068 28.6036 74.1565 25.3427C75.2046 22.0819 74.6465 20.3577 73.0403 19.1205C71.4341 17.8833 68.3729 17.4477 65.4311 20.3244" stroke="white" stroke-width="4.5" stroke-miterlimit="10" stroke-linecap="round" stroke-linejoin="round"/>
<path d="M75.1441 27.0533C77.8333 27.1214 83.5095 25.2096 85.819 23.741C88.1301 22.2709 89.0406 20.5982 88.3993 19.1538C87.758 17.7094 84.7648 17.599 82.5809 19.0509C80.3969 20.5044 79.4531 22.3481 79.2429 25.1159C79.0312 27.8852 79.9416 29.9754 82.531 30.4684C85.1188 30.96 86.8142 29.5338 89.5125 28.4297" stroke="white" stroke-width="4.5" stroke-miterlimit="10" stroke-linecap="round" stroke-linejoin="round"/>
<path d="M91.3274 30.0919C92.3286 31.3018 93.7488 27.5328 94.5837 25.5197C95.4186 23.5066 96.0553 19.8525 96.3367 18.0149C98.4359 19.8782 100.948 19.7572 101.727 21.489C102.506 23.2193 100.618 26.9339 101.012 28.4009C101.403 29.868 102.775 30.5652 104.032 30.3913" stroke="white" stroke-width="4.5" stroke-miterlimit="10" stroke-linecap="round" stroke-linejoin="round"/>
<path d="M104.637 30.1145C105.962 29.4218 107.836 26.6752 109.304 22.9652C110.773 19.2566 114.001 7.48972 115.375 3.34408" stroke="white" stroke-width="4.5" stroke-miterlimit="10" stroke-linecap="round" stroke-linejoin="round"/>
<path d="M103.73 10.9064C105.697 7.4126 108.848 3.75547 113.686 3.24124C118.524 2.727 123.048 6.40984 125.932 7.31429C128.817 8.21723 129.441 8.18698 131.559 7.90567" stroke="white" stroke-width="4.5" stroke-miterlimit="10" stroke-linecap="round" stroke-linejoin="round"/>
<path d="M107.057 16.1349C110.132 14.8932 114.317 18.9662 117.19 18.0225" stroke="white" stroke-width="4.5" stroke-miterlimit="10" stroke-linecap="round" stroke-linejoin="round"/>
<path fill-rule="evenodd" clip-rule="evenodd" d="M129.869 25.1159C130.837 21.3831 129.623 18.4369 126.778 17.9363C123.933 17.4372 121.564 19.5379 120.444 23.0181C119.323 26.4998 120.826 29.9648 123.11 30.3656C125.394 30.7649 128.901 28.8471 129.869 25.1159Z" stroke="white" stroke-width="4.5" stroke-miterlimit="10" stroke-linecap="round" stroke-linejoin="round"/>
<path d="M129.29 27.8322C129.272 27.8353 131.279 30.7392 132.814 30.2234C134.349 29.7077 135.511 27.4057 136.38 25.3458C137.249 23.2858 137.749 19.6967 138.032 17.8636C140.13 19.7225 142.64 19.6015 143.418 21.3272C144.197 23.0529 142.311 26.7569 142.704 28.2194C143.096 29.682 144.769 32.2985 148.498 28.2814" stroke="white" stroke-width="4.5" stroke-miterlimit="10" stroke-linecap="round" stroke-linejoin="round"/>
<path d="M158.046 20.4333C157.779 18.6562 155.788 17.6413 154.279 18.142C152.768 18.6441 150.009 20.273 148.982 23.4386C147.955 26.6041 148.371 29.4461 152.089 30.414C155.805 31.382 159.709 27.5207 161.203 26.4938" stroke="white" stroke-width="4.5" stroke-miterlimit="10" stroke-linecap="round" stroke-linejoin="round"/>
<path d="M161.959 25.8721C164.651 25.9402 166.704 25.2868 168.898 23.5823C171.093 21.8762 172.123 20.4424 171.48 19.001C170.839 17.5582 167.843 17.4477 165.657 18.8997C163.47 20.3501 162.525 22.1908 162.313 24.9556C162.103 27.7219 163.015 29.809 165.606 30.3006C168.196 30.7921 170.551 29.6729 173 27.9079" stroke="white" stroke-width="4.5" stroke-miterlimit="10" stroke-linecap="round" stroke-linejoin="round"/>
</svg>
