<svg width="66" height="66" viewBox="0 0 66 66" fill="none" xmlns="http://www.w3.org/2000/svg">
<path d="M20.3509 35.7716C17.3228 36.6884 14.1253 34.975 13.2099 31.9439C12.2939 28.9132 14.0059 25.7131 17.0345 24.7968C20.0626 23.8801 23.2601 25.5935 24.1756 28.6246C24.5012 29.7005 24.5028 30.8483 24.1816 31.9257" stroke="white" stroke-width="2.5" stroke-miterlimit="8" stroke-linecap="round"/>
<path d="M12.9643 30.2546L12.9644 17.3641" stroke="white" stroke-width="2.5" stroke-miterlimit="8" stroke-linecap="round"/>
<path d="M36.1148 35.4611C33.2714 34.1011 32.0632 30.6804 33.4161 27.8209C34.769 24.962 38.1704 23.7468 41.0131 25.1074C43.8566 26.4675 45.0647 29.8882 43.7121 32.7476C43.5058 33.1832 43.2461 33.5909 42.9385 33.9606" stroke="white" stroke-width="2.5" stroke-miterlimit="8" stroke-linecap="round"/>
<path d="M32.863 30.2964V21.2047" stroke="white" stroke-width="2.5" stroke-miterlimit="8" stroke-linecap="round"/>
<path d="M35.9618 35.3591C37.8464 35.9324 38.9104 37.9261 38.3376 39.8121C37.8859 41.3003 36.5242 42.3241 34.9707 42.3441" stroke="white" stroke-width="2.5" stroke-miterlimit="8" stroke-linecap="round"/>
<path d="M27.6696 44.1367C26.0535 46.2691 23.0046 47.0784 20.796 45.9608" stroke="white" stroke-width="2.5" stroke-miterlimit="8" stroke-linecap="round"/>
<path d="M27.5424 44.3449C28.9972 42.0475 32.0768 41.1066 34.4203 42.2427C34.4926 42.2777 34.5644 42.3146 34.6346 42.3535" stroke="white" stroke-width="2.5" stroke-miterlimit="8" stroke-linecap="round"/>
<path d="M29.6583 48.807C28.0659 50.9489 25.0213 51.7495 22.8199 50.6055" stroke="white" stroke-width="2.5" stroke-miterlimit="8" stroke-linecap="round"/>
<path d="M29.4692 49.0294C30.7366 46.9822 33.335 45.9784 35.5896 46.664" stroke="white" stroke-width="2.5" stroke-miterlimit="8" stroke-linecap="round"/>
<path d="M12.9647 14.7855C14.2852 11.4422 16.8479 7.53235 21.9525 6.48146C27.0571 5.43052 30.9036 7.85037 32.8633 9.78401" stroke="white" stroke-width="2.5" stroke-miterlimit="8" stroke-linecap="round"/>
<path d="M44.2647 14.7855C43.477 13.1168 41.9284 10.9685 39.9233 10.3313C37.9183 9.69406 35.7221 10.6341 34.7815 11.5294" stroke="white" stroke-width="2.5" stroke-miterlimit="8" stroke-linecap="round"/>
<path d="M50.5493 60.3409C48.6554 60.6949 46.8046 59.446 46.4165 57.5512C46.0279 55.6561 47.2485 53.8332 49.1425 53.4793C51.0365 53.1253 52.8864 54.3742 53.2754 56.2689C53.4129 56.9403 53.3504 57.6341 53.0958 58.2639" stroke="white" stroke-width="2.5" stroke-miterlimit="8" stroke-linecap="round"/>
<path fill-rule="evenodd" clip-rule="evenodd" d="M38.4028 56.8822C36.8942 55.6651 36.6569 53.4533 37.8732 51.9432C39.0902 50.433 41.2995 50.1958 42.8085 51.4136C44.3174 52.6311 44.5543 54.8421 43.338 56.3522C42.1217 57.8628 39.9119 58.0997 38.4028 56.8822Z" stroke="white" stroke-width="2.5" stroke-miterlimit="8"/>
<path d="M46.3831 56.4984L50.2059 29.312" stroke="white" stroke-width="2.5" stroke-miterlimit="8" stroke-linecap="round"/>
<path d="M43.6421 55.9743L54.3455 30.6535" stroke="white" stroke-width="2.5" stroke-miterlimit="8" stroke-linecap="round"/>
</svg>
