<svg width="225" height="58" viewBox="0 0 225 58" fill="none" xmlns="http://www.w3.org/2000/svg">
<path d="M9.38794 31.7716C6.35983 32.6884 3.16233 30.975 2.24689 27.9439C1.33091 24.9132 3.04286 21.7131 6.07151 20.7968C9.09962 19.8801 12.2971 21.5935 13.2126 24.6246C13.5382 25.7005 13.5398 26.8483 13.2186 27.9257" stroke="white" stroke-width="2.5" stroke-miterlimit="8" stroke-linecap="round"/>
<path d="M2.00146 26.2546L2.00156 13.3641" stroke="white" stroke-width="2.5" stroke-miterlimit="8" stroke-linecap="round"/>
<path d="M25.152 31.4611C22.3086 30.1011 21.1005 26.6804 22.4533 23.8209C23.8063 20.962 27.2077 19.7468 30.0504 21.1074C32.8939 22.4675 34.1019 25.8882 32.7493 28.7476C32.543 29.1832 32.2834 29.5909 31.9758 29.9606" stroke="white" stroke-width="2.5" stroke-miterlimit="8" stroke-linecap="round"/>
<path d="M21.9001 26.2964V17.2047" stroke="white" stroke-width="2.5" stroke-miterlimit="8" stroke-linecap="round"/>
<path d="M24.9989 31.3591C26.8835 31.9324 27.9475 33.9261 27.3747 35.8121C26.923 37.3003 25.5613 38.3241 24.0078 38.3441" stroke="white" stroke-width="2.5" stroke-miterlimit="8" stroke-linecap="round"/>
<path d="M16.7066 40.1367C15.0905 42.2691 12.0416 43.0784 9.83301 41.9608" stroke="white" stroke-width="2.5" stroke-miterlimit="8" stroke-linecap="round"/>
<path d="M16.5796 40.3449C18.0345 38.0475 21.1141 37.1066 23.4575 38.2427C23.5299 38.2777 23.6017 38.3146 23.6719 38.3535" stroke="white" stroke-width="2.5" stroke-miterlimit="8" stroke-linecap="round"/>
<path d="M18.6954 44.807C17.103 46.9489 14.0584 47.7495 11.8569 46.6055" stroke="white" stroke-width="2.5" stroke-miterlimit="8" stroke-linecap="round"/>
<path d="M18.5063 45.0294C19.7737 42.9822 22.3721 41.9784 24.6267 42.664" stroke="white" stroke-width="2.5" stroke-miterlimit="8" stroke-linecap="round"/>
<path d="M2.00171 10.7855C3.32226 7.44222 5.88495 3.53235 10.9895 2.48146C16.0941 1.43052 19.9407 3.85037 21.9004 5.78401" stroke="white" stroke-width="2.5" stroke-miterlimit="8" stroke-linecap="round"/>
<path d="M33.3018 10.7855C32.5142 9.11683 30.9655 6.96853 28.9604 6.33132C26.9555 5.69406 24.7592 6.63413 23.8186 7.52941" stroke="white" stroke-width="2.5" stroke-miterlimit="8" stroke-linecap="round"/>
<path d="M39.5863 56.3409C37.6923 56.6949 35.8416 55.446 35.4534 53.5512C35.0649 51.6561 36.2855 49.8332 38.1795 49.4793C40.0734 49.1253 41.9234 50.3742 42.3123 52.2689C42.4498 52.9403 42.3874 53.6341 42.1328 54.2639" stroke="white" stroke-width="2.5" stroke-miterlimit="8" stroke-linecap="round"/>
<path fill-rule="evenodd" clip-rule="evenodd" d="M27.4399 52.8822C25.9313 51.6651 25.6939 49.4533 26.9103 47.9432C28.1272 46.433 30.3365 46.1958 31.8455 47.4136C33.3545 48.6311 33.5914 50.8421 32.3751 52.3522C31.1588 53.8628 28.949 54.0997 27.4399 52.8822Z" stroke="white" stroke-width="2.5" stroke-miterlimit="8"/>
<path d="M35.4202 52.4984L39.2431 25.312" stroke="white" stroke-width="2.5" stroke-miterlimit="8" stroke-linecap="round"/>
<path d="M32.6792 51.9743L43.3826 26.6535" stroke="white" stroke-width="2.5" stroke-miterlimit="8" stroke-linecap="round"/>
<path d="M67.2943 20.1979C68.4801 18.373 69.0224 17.8164 70.1299 17.6883C71.2374 17.5602 72.7534 17.7339 72.4545 20.9068C72.1555 24.0798 69.9306 32.904 68.3391 36.7274C66.7477 40.5524 64.9242 41.583 63.3826 42.1438" stroke="white" stroke-width="3" stroke-miterlimit="8" stroke-linecap="round"/>
<path d="M72.8444 20.0399C75.092 18.5381 76.6038 17.1602 79.1376 17.0919C81.67 17.0235 83.1148 18.8969 83.6316 20.3673C84.1497 21.8378 83.939 24.1908 82.2422 25.9132C80.5469 27.6371 78.534 27.667 76.7675 27.7566C74.9995 27.8449 73.3753 27.3737 71.6387 26.4456" stroke="white" stroke-width="3" stroke-miterlimit="8" stroke-linecap="round"/>
<path d="M75.213 27.6242C78.9454 27.9089 81.9489 29.1132 83.2842 31.0378C84.6194 32.9609 85.4208 36.0328 83.223 39.1673C81.0251 42.3004 77.5233 42.5495 74.9041 42.3943C72.2863 42.2392 69.1119 40.2036 67.5105 38.2363" stroke="white" stroke-width="3" stroke-miterlimit="8" stroke-linecap="round"/>
<path d="M99.2544 35.936C98.3448 32.5723 97.4921 31.526 95.1903 30.9054C92.8871 30.2833 90.8501 31.7025 89.7356 33.3466C88.621 34.9908 88.3277 37.4249 88.7861 39.0648C89.2459 40.7047 90.4174 41.7965 92.4914 42.3345C94.5654 42.874 97.9163 41.0463 99.0338 37.7523" stroke="white" stroke-width="3" stroke-miterlimit="8" stroke-linecap="round"/>
<path d="M101.484 31.1217C100.298 32.7915 99.4168 34.931 99.2731 36.6677C99.1293 38.4029 99.8382 40.6591 100.624 41.536C101.411 42.4128 102.9 42.531 103.991 41.9303C105.081 41.3296 106.359 39.7694 107.165 37.9303C107.971 36.0926 108.557 32.6207 108.823 30.8983C110.809 32.6449 113.183 32.531 113.921 34.1538C114.658 35.7751 112.873 39.257 113.245 40.6321C113.616 42.0057 114.578 42.5652 115.767 42.4015" stroke="white" stroke-width="3" stroke-miterlimit="10" stroke-linecap="round" stroke-linejoin="round"/>
<path d="M116.194 42.2862C117.435 41.6371 119.666 39.1089 121.041 35.6299C122.416 32.1524 125.439 21.1203 126.728 17.2328" stroke="white" stroke-width="3" stroke-miterlimit="10" stroke-linecap="round" stroke-linejoin="round"/>
<path d="M119.61 39.2114C120.47 40.5723 122.833 42.3986 125.101 42.2805C127.368 42.1623 129.366 40.7217 130.353 37.6527C131.34 34.5837 130.815 32.9609 129.303 31.7965C127.791 30.6321 124.91 30.2221 122.141 32.9296" stroke="white" stroke-width="3" stroke-miterlimit="10" stroke-linecap="round" stroke-linejoin="round"/>
<path d="M131.283 39.2627C133.814 39.3267 139.156 37.5274 141.33 36.1452C143.505 34.7616 144.362 33.1872 143.758 31.8278C143.155 30.4684 140.338 30.3644 138.282 31.731C136.227 33.099 135.338 34.8342 135.141 37.4392C134.941 40.0456 135.798 42.0128 138.235 42.4769C140.671 42.9395 142.267 41.5972 144.806 40.558" stroke="white" stroke-width="3" stroke-miterlimit="10" stroke-linecap="round" stroke-linejoin="round"/>
<path d="M146.514 42.1225C147.457 43.2613 148.793 39.7139 149.579 37.8193C150.365 35.9246 150.964 32.4855 151.229 30.7559C153.205 32.5097 155.569 32.3958 156.302 34.0257C157.035 35.6541 155.259 39.1502 155.629 40.531C155.997 41.9118 157.289 42.568 158.471 42.4043" stroke="white" stroke-width="3" stroke-miterlimit="10" stroke-linecap="round" stroke-linejoin="round"/>
<path d="M159.041 42.1438C160.288 41.4918 162.051 38.9068 163.434 35.415C164.816 31.9246 167.854 20.8498 169.148 16.9481" stroke="white" stroke-width="3" stroke-miterlimit="10" stroke-linecap="round" stroke-linejoin="round"/>
<path d="M158.187 24.0655C160.039 20.7773 163.004 17.3353 167.558 16.8513C172.111 16.3673 176.369 19.8335 179.084 20.6847C181.798 21.5346 182.386 21.5061 184.379 21.2413" stroke="white" stroke-width="3" stroke-miterlimit="10" stroke-linecap="round" stroke-linejoin="round"/>
<path d="M161.318 28.9865C164.212 27.8178 168.151 31.6513 170.856 30.763" stroke="white" stroke-width="3" stroke-miterlimit="10" stroke-linecap="round" stroke-linejoin="round"/>
<path fill-rule="evenodd" clip-rule="evenodd" d="M182.789 37.4392C183.7 33.926 182.557 31.1531 179.879 30.6819C177.202 30.2122 174.972 32.1894 173.918 35.4648C172.863 38.7417 174.278 42.0029 176.427 42.3801C178.577 42.7559 181.878 40.9509 182.789 37.4392Z" stroke="white" stroke-width="3" stroke-miterlimit="10" stroke-linecap="round" stroke-linejoin="round"/>
<path d="M182.244 39.9958C182.227 39.9986 184.116 42.7317 185.561 42.2463C187.006 41.7609 188.099 39.5943 188.917 37.6555C189.734 35.7168 190.206 32.3388 190.472 30.6136C192.446 32.363 194.809 32.2491 195.541 33.8733C196.274 35.4975 194.499 38.9837 194.869 40.3602C195.238 41.7367 196.812 44.1993 200.322 40.4185" stroke="white" stroke-width="3" stroke-miterlimit="10" stroke-linecap="round" stroke-linejoin="round"/>
<path d="M209.309 33.0321C209.057 31.3595 207.183 30.4043 205.763 30.8755C204.341 31.3481 201.744 32.8812 200.778 35.8605C199.811 38.8399 200.203 41.5146 203.702 42.4257C207.199 43.3367 210.873 39.7025 212.28 38.736" stroke="white" stroke-width="3" stroke-miterlimit="10" stroke-linecap="round" stroke-linejoin="round"/>
<path d="M212.991 38.1509C215.525 38.215 217.456 37.6001 219.522 35.9958C221.587 34.3901 222.557 33.0406 221.952 31.684C221.348 30.326 218.528 30.2221 216.471 31.5887C214.413 32.9538 213.523 34.6862 213.324 37.2883C213.126 39.8919 213.985 41.8563 216.423 42.3189C218.861 42.7815 221.078 41.7282 223.382 40.067" stroke="white" stroke-width="3" stroke-miterlimit="10" stroke-linecap="round" stroke-linejoin="round"/>
</svg>
