<svg width="26" height="26" viewBox="0 0 26 26" fill="#ffffff" xmlns="http://www.w3.org/2000/svg">
<g clip-path="url(#clip0)">
<path d="M17.2475 15.1628L13.7015 12.5034V7.08596C13.7015 6.54125 13.2612 6.10095 12.7165 6.10095C12.1717 6.10095 11.7314 6.54125 11.7314 7.08596V12.9959C11.7314 13.3062 11.8772 13.5987 12.1254 13.7839L16.0654 16.7389C16.2427 16.8719 16.4496 16.9359 16.6554 16.9359C16.9558 16.9359 17.2513 16.8009 17.4444 16.5409C17.7715 16.1065 17.6828 15.4889 17.2475 15.1628Z" fill="#ffffff"/>
<path d="M12.7162 0.200867C5.70405 0.200867 0 5.90492 0 12.9171C0 19.9292 5.70405 25.6332 12.7162 25.6332C19.7283 25.6332 25.4324 19.9292 25.4324 12.9171C25.4324 5.90492 19.7283 0.200867 12.7162 0.200867ZM12.7162 23.6633C6.79149 23.6633 1.96997 18.8418 1.96997 12.9171C1.96997 6.99235 6.79149 2.17083 12.7162 2.17083C18.6419 2.17083 23.4624 6.99235 23.4624 12.9171C23.4624 18.8418 18.6409 23.6633 12.7162 23.6633Z" fill="#ffffff"/>
</g>
<defs>
<clipPath id="clip0">
<rect width="25.4324" height="25.4324" fill="white" transform="translate(0 0.200867)"/>
</clipPath>
</defs>
</svg>
