<svg width="21" height="22" viewBox="0 0 21 22" fill="none" xmlns="http://www.w3.org/2000/svg">
<g clip-path="url(#clip0)">
<path d="M17.5572 3.58256C13.5398 -0.433645 7.02724 -0.432681 3.01103 3.58477C-1.00518 7.60223 -1.00421 14.1148 3.01324 18.131C7.0307 22.1472 13.5432 22.1462 17.5595 18.1288C19.4883 16.1994 20.5716 13.5827 20.571 10.8546C20.5704 8.12684 19.4863 5.51105 17.5572 3.58256ZM15.5769 14.8989C15.5764 14.8994 15.576 14.8999 15.5755 14.9003V14.8969L15.0544 15.4146C14.3804 16.0971 13.3988 16.3779 12.4658 16.1552C11.5258 15.9036 10.6322 15.5031 9.81893 14.9689C9.06333 14.486 8.3631 13.9215 7.73093 13.2854C7.14926 12.708 6.6267 12.074 6.17092 11.3929C5.67238 10.6599 5.27779 9.86151 4.99834 9.02029C4.678 8.03206 4.94346 6.94768 5.68407 6.21916L6.29434 5.60889C6.46402 5.43845 6.73972 5.43785 6.91012 5.60752C6.91056 5.60796 6.91105 5.60841 6.91149 5.60889L8.83833 7.53573C9.00877 7.70541 9.00937 7.98111 8.8397 8.15151C8.83925 8.15195 8.83881 8.15239 8.83833 8.15288L7.7069 9.2843C7.38226 9.60541 7.34144 10.1157 7.61092 10.4843C8.02013 11.0459 8.47299 11.5744 8.96521 12.0649C9.51401 12.6161 10.1106 13.1175 10.7481 13.5632C11.1164 13.8201 11.6157 13.7768 11.9343 13.4603L13.028 12.3495C13.1977 12.179 13.4734 12.1784 13.6438 12.3481C13.6442 12.3486 13.6447 12.349 13.6452 12.3495L15.5755 14.2832C15.746 14.4528 15.7466 14.7285 15.5769 14.8989Z" fill="black"/>
</g>
<defs>
<clipPath id="clip0">
<rect width="20.5714" height="20.5714" fill="white" transform="translate(0 0.571411)"/>
</clipPath>
</defs>
</svg>
