<svg width="14" height="13" viewBox="0 0 14 13" fill="none" xmlns="http://www.w3.org/2000/svg">
<path d="M6.52413 0.475528C6.67315 0.0134865 7.32685 0.0134857 7.47586 0.475527L8.67485 4.19326C8.74159 4.40018 8.93439 4.54027 9.15181 4.53979L13.0581 4.53125C13.5436 4.53019 13.7456 5.15191 13.3522 5.4364L10.1869 7.72555C10.0108 7.85296 9.93711 8.07962 10.0047 8.28625L11.22 11.9987C11.371 12.4601 10.8421 12.8443 10.45 12.5581L7.29478 10.2552C7.11916 10.127 6.88084 10.127 6.70522 10.2552L3.54999 12.5581C3.15786 12.8443 2.629 12.4601 2.78003 11.9987L3.99526 8.28625C4.06289 8.07962 3.98925 7.85296 3.81307 7.72555L0.647808 5.4364C0.254427 5.15191 0.456434 4.53019 0.941908 4.53125L4.84819 4.53979C5.06561 4.54027 5.25841 4.40018 5.32515 4.19326L6.52413 0.475528Z" fill="#FFD600"/>
</svg>
